<svg width="30" height="20" viewBox="0 0 25 24" fill="none" xmlns="http://www.w3.org/2000/svg"><path fill-rule="evenodd" clip-rule="evenodd" d="M12.302 0C5.505 0 0 5.505 0 12.302c0 5.437 3.527 10.044 8.413 11.675.611.113.838-.264.838-.597 0-.294-.008-1.064-.015-2.091-3.421.74-4.146-1.647-4.146-1.647-.559-1.42-1.367-1.805-1.367-1.805-1.118-.762.083-.747.083-.747 1.231.09 1.888 1.268 1.888 1.268 1.095 1.88 2.877 1.337 3.58 1.02.113-.793.43-1.337.777-1.646-2.726-.302-5.595-1.36-5.595-6.072 0-1.344.475-2.44 1.268-3.3-.128-.317-.551-1.563.114-3.255 0 0 1.034-.332 3.383 1.261a11.939 11.939 0 0 1 3.08-.415c1.043.007 2.1.143 3.082.415 2.349-1.593 3.383-1.261 3.383-1.261.672 1.692.25 2.945.121 3.255.785.86 1.261 1.956 1.261 3.3 0 4.727-2.877 5.762-5.618 6.072.438.377.838 1.132.838 2.28 0 1.647-.015 2.968-.015 3.376 0 .332.219.71.846.589 4.886-1.631 8.405-6.238 8.405-11.668C24.604 5.505 19.099 0 12.302 0Z" fill="#fff"/></svg>