<svg width="30" height="17" viewBox="0 0 50 40" xmlns="http://www.w3.org/2000/svg" fill="none"><path d="M15.453 40c18.563 0 28.72-15.394 28.72-28.72 0-.433 0-.867-.02-1.3a20.565 20.565 0 0 0 5.04-5.236 20.457 20.457 0 0 1-5.807 1.595A10.156 10.156 0 0 0 47.835.748a20.08 20.08 0 0 1-6.418 2.441A10.075 10.075 0 0 0 34.055 0c-5.57 0-10.098 4.528-10.098 10.098 0 .788.098 1.556.256 2.304-8.386-.414-15.827-4.45-20.807-10.552a10.096 10.096 0 0 0-1.359 5.08c0 3.503 1.792 6.594 4.488 8.405a10.211 10.211 0 0 1-4.567-1.26v.138c0 4.881 3.485 8.976 8.091 9.901a9.843 9.843 0 0 1-2.657.355c-.65 0-1.28-.06-1.89-.178A10.094 10.094 0 0 0 14.94 31.3 20.245 20.245 0 0 1 2.4 35.63c-.807 0-1.614-.038-2.401-.137A28.713 28.713 0 0 0 15.453 40Z" fill="#fff"/></svg>